<svg xmlns="http://www.w3.org/2000/svg" width="38" height="38" fill="none" viewBox="0 0 38 38"><circle cx="3" cy="3" r="3" fill="#07BD04"/><circle cx="3" cy="11" r="3" fill="#07BD04"/><circle cx="3" cy="19" r="3" fill="#07BD04"/><circle cx="3" cy="27" r="3" fill="#07BD04"/><circle cx="3" cy="35" r="3" fill="#07BD04"/><circle cx="11" cy="3" r="3" fill="#07BD04"/><circle cx="11" cy="11" r="3" fill="#07BD04"/><circle cx="11" cy="19" r="3" fill="#07BD04"/><circle cx="11" cy="27" r="3" fill="#07BD04"/><circle cx="11" cy="35" r="3" fill="#07BD04"/><circle cx="19" cy="3" r="3" fill="#07BD04"/><circle cx="19" cy="11" r="3" fill="#07BD04"/><circle cx="19" cy="19" r="3" fill="#07BD04"/><circle cx="19" cy="27" r="3" fill="#07BD04"/><circle cx="19" cy="35" r="3" fill="#07BD04"/><circle cx="27" cy="3" r="3" fill="#07BD04"/><circle cx="27" cy="11" r="3" fill="#07BD04"/><circle cx="27" cy="19" r="3" fill="#07BD04"/><circle cx="27" cy="27" r="3" fill="#07BD04"/><circle cx="27" cy="35" r="3" fill="#07BD04"/><circle cx="35" cy="3" r="3" fill="#07BD04"/><circle cx="35" cy="11" r="3" fill="#07BD04"/><circle cx="35" cy="19" r="3" fill="#07BD04"/><circle cx="35" cy="27" r="3" fill="#07BD04"/><circle cx="35" cy="35" r="3" fill="#07BD04"/></svg>