<svg xmlns="http://www.w3.org/2000/svg" width="50" height="53" fill="none" viewBox="0 0 50 53"><g clip-path="url(#clip0_134_28)"><path fill="#fff" d="M42.3261 10.3473C39.1386 8.87137 35.722 7.78045 32.149 7.16012C32.1172 7.15385 32.0843 7.15789 32.0548 7.17169C32.0253 7.18548 32.0007 7.20835 31.9845 7.23713C31.547 8.02644 31.0595 9.05533 30.7178 9.86817C26.9284 9.28685 23.0759 9.28685 19.2865 9.86817C18.906 8.96733 18.4769 8.08895 18.0011 7.23713C17.985 7.208 17.9606 7.18461 17.9312 7.17009C17.9018 7.15556 17.8688 7.15059 17.8365 7.15584C14.2657 7.77617 10.849 8.86709 7.65946 10.3452C7.63202 10.357 7.60876 10.3772 7.5928 10.4029C1.10946 20.1891 -0.667618 29.7336 0.205298 39.1583C0.207727 39.1814 0.214705 39.2037 0.225808 39.224C0.236911 39.2442 0.251907 39.2619 0.269881 39.276C4.05403 42.1047 8.27475 44.2596 12.7553 45.6504C12.7865 45.6603 12.8199 45.6602 12.8512 45.6503C12.8824 45.6404 12.91 45.621 12.9303 45.5948C13.8928 44.2685 14.7511 42.8675 15.4845 41.3958C15.5282 41.3102 15.4865 41.2075 15.399 41.1733C14.0532 40.6529 12.7492 40.025 11.499 39.2952C11.4766 39.2821 11.4577 39.2634 11.444 39.2408C11.4303 39.2183 11.4222 39.1926 11.4206 39.1661C11.4189 39.1396 11.4237 39.1131 11.4345 39.089C11.4453 39.0649 11.4617 39.0438 11.4824 39.0278C11.7449 38.8289 12.0074 38.6214 12.2574 38.4139C12.2799 38.3953 12.307 38.3834 12.3357 38.3796C12.3644 38.3758 12.3935 38.3803 12.4199 38.3925C20.6011 42.1658 29.4615 42.1658 37.547 38.3925C37.5734 38.3796 37.6028 38.3745 37.6319 38.3779C37.661 38.3813 37.6886 38.3931 37.7115 38.4118C37.9615 38.6214 38.222 38.8289 38.4865 39.0278C38.5074 39.0435 38.5241 39.0642 38.5352 39.0882C38.5464 39.1121 38.5516 39.1385 38.5503 39.165C38.5491 39.1915 38.5415 39.2172 38.5282 39.24C38.5148 39.2627 38.4963 39.2817 38.474 39.2952C37.2282 40.0311 35.9324 40.6535 34.572 41.1712C34.5511 41.179 34.532 41.1912 34.5161 41.2072C34.5002 41.2231 34.4878 41.2424 34.4797 41.2636C34.4716 41.2849 34.4681 41.3077 34.4692 41.3305C34.4704 41.3533 34.4763 41.3755 34.4865 41.3958C35.2365 42.8653 36.0949 44.2643 37.0386 45.5926C37.0582 45.6199 37.0856 45.6403 37.1169 45.651C37.1482 45.6617 37.182 45.6622 37.2136 45.6525C41.7019 44.2656 45.9295 42.1098 49.7178 39.276C49.7363 39.2627 49.7518 39.2455 49.7633 39.2256C49.7748 39.2057 49.782 39.1835 49.7845 39.1605C50.8261 28.2641 48.0386 18.7966 42.3907 10.4072C42.3769 10.38 42.3539 10.3587 42.3261 10.3473ZM16.7074 33.4192C14.2449 33.4192 12.2136 31.1326 12.2136 28.3283C12.2136 25.5218 14.2053 23.2373 16.7074 23.2373C19.2282 23.2373 21.2407 25.5411 21.2011 28.3283C21.2011 31.1347 19.2095 33.4192 16.7074 33.4192ZM33.322 33.4192C30.8574 33.4192 28.8282 31.1326 28.8282 28.3283C28.8282 25.5218 30.8178 23.2373 33.322 23.2373C35.8428 23.2373 37.8553 25.5411 37.8157 28.3283C37.8157 31.1347 35.8449 33.4192 33.322 33.4192Z"/></g><defs><clipPath id="clip0_134_28"><rect width="50" height="51.337" fill="#fff" transform="translate(0 0.73877)"/></clipPath></defs></svg>