<svg xmlns="http://www.w3.org/2000/svg" width="50" height="53" fill="none" viewBox="0 0 50 53"><path fill="#fff" d="M25.1062 20.1756C21.7034 20.1756 18.9265 23.0268 18.9265 26.5206C18.9265 30.0144 21.7034 32.8656 25.1062 32.8656C28.509 32.8656 31.2859 30.0144 31.2859 26.5206C31.2859 23.0268 28.509 20.1756 25.1062 20.1756ZM43.6407 26.5206C43.6407 23.8931 43.6639 21.2894 43.5201 18.6667C43.3764 15.6203 42.6996 12.9166 40.53 10.689C38.3557 8.45658 35.7271 7.76638 32.7601 7.61883C30.2011 7.47127 27.6652 7.49507 25.1108 7.49507C22.5518 7.49507 20.0159 7.47127 17.4615 7.61883C14.4945 7.76638 11.8613 8.46134 9.69168 10.689C7.51743 12.9214 6.84522 15.6203 6.7015 18.6667C6.55779 21.2941 6.58097 23.8978 6.58097 26.5206C6.58097 29.1433 6.55779 31.7517 6.7015 34.3745C6.84522 37.4208 7.52206 40.1245 9.69168 42.3521C11.8659 44.5846 14.4945 45.2747 17.4615 45.4223C20.0206 45.5699 22.5564 45.5461 25.1108 45.5461C27.6699 45.5461 30.2057 45.5699 32.7601 45.4223C35.7271 45.2747 38.3603 44.5798 40.53 42.3521C42.7042 40.1197 43.3764 37.4208 43.5201 34.3745C43.6685 31.7517 43.6407 29.1481 43.6407 26.5206ZM25.1062 36.2832C19.8444 36.2832 15.5979 31.9231 15.5979 26.5206C15.5979 21.118 19.8444 16.7579 25.1062 16.7579C30.368 16.7579 34.6145 21.118 34.6145 26.5206C34.6145 31.9231 30.368 36.2832 25.1062 36.2832ZM35.0039 18.6381C33.7754 18.6381 32.7833 17.6195 32.7833 16.3581C32.7833 15.0967 33.7754 14.0781 35.0039 14.0781C36.2324 14.0781 37.2245 15.0967 37.2245 16.3581C37.2249 16.6576 37.1677 16.9543 37.0562 17.2311C36.9448 17.5078 36.7812 17.7593 36.5749 17.9711C36.3687 18.1829 36.1237 18.3509 35.8541 18.4653C35.5846 18.5798 35.2956 18.6385 35.0039 18.6381Z"/></svg>