<svg xmlns="http://www.w3.org/2000/svg" width="50" height="53" fill="none" viewBox="0 0 50 53"><path fill="#fff" fill-rule="evenodd" d="M2.0835 6.80953C2.0835 5.7668 2.48693 4.76679 3.20503 4.02947C3.92314 3.29215 4.8971 2.87793 5.91266 2.87793H44.0835C44.5868 2.87709 45.0853 2.97818 45.5504 3.17541C46.0156 3.37264 46.4384 3.66214 46.7944 4.02733C47.1505 4.39252 47.4329 4.82624 47.6255 5.30365C47.8181 5.78106 47.9171 6.29278 47.9168 6.80953V46.0014C47.9174 46.5182 47.8187 47.0301 47.6263 47.5077C47.434 47.9854 47.1519 48.4194 46.796 48.785C46.4402 49.1505 46.0176 49.4405 45.5525 49.6382C45.0874 49.8359 44.589 49.9375 44.0856 49.9373H5.91266C5.40963 49.9373 4.91153 49.8355 4.44682 49.6378C3.98211 49.4401 3.55989 49.1503 3.2043 48.785C2.8487 48.4197 2.56669 47.986 2.37438 47.5087C2.18207 47.0315 2.08322 46.52 2.0835 46.0035V6.80953ZM20.2252 20.8204H26.4314V24.0204C27.3272 22.1808 29.6189 20.5252 33.0627 20.5252C39.6647 20.5252 41.2293 24.1894 41.2293 30.9125V43.3661H34.5481V32.444C34.5481 28.6151 33.6522 26.4547 31.3772 26.4547C28.221 26.4547 26.9085 28.7841 26.9085 32.444V43.3661H20.2252V20.8204ZM8.76683 43.073H15.4502V20.5252H8.76683V43.0709V43.073ZM16.4064 13.1711C16.419 13.7586 16.3172 14.3428 16.1069 14.8894C15.8966 15.436 15.5821 15.934 15.1819 16.3541C14.7816 16.7742 14.3037 17.108 13.7761 17.3359C13.2485 17.5637 12.6819 17.6811 12.1095 17.6811C11.5372 17.6811 10.9706 17.5637 10.443 17.3359C9.91537 17.108 9.43743 16.7742 9.03718 16.3541C8.63693 15.934 8.32244 15.436 8.11216 14.8894C7.90189 14.3428 7.80006 13.7586 7.81266 13.1711C7.8374 12.0178 8.30096 10.9204 9.10409 10.1137C9.90722 9.30705 10.986 8.85536 12.1095 8.85536C13.233 8.85536 14.3119 9.30705 15.115 10.1137C15.9181 10.9204 16.3817 12.0178 16.4064 13.1711Z" clip-rule="evenodd"/></svg>